<svg preserveAspectRatio="xMidYMid meet" data-bbox="0 -0.1 307.9 290.8" viewBox="0 -0.1 307.9 290.8" xmlns="http://www.w3.org/2000/svg" data-type="color" role="presentation" aria-hidden="true">
    <g>
        <path d="M275.9 187.1c1.6-3.4 3-6.9 4.3-10.4.7-1.9 1.3-3.9 1.9-5.9 15.5 1 24.5-9.2 25.8-24.4-10.5 1.4-18.6 7.1-23.6 15.8 1.3-5.9 2.1-11.8 2.5-17.8 14.6-2.3 21.9-14.5 19.5-29.1-10 4-16.6 11.4-19.3 21.1 0-2.4 0-4.7-.1-7.1-.2-3.9-.6-7.8-1.1-11.6 14.1-5.4 17.7-18.4 12.7-32.4-8.7 6.2-13.5 15-13.9 25.2-1.2-6.4-3-12.7-5.1-18.8 12.1-8.1 13.3-21.9 5.1-34-7 8.1-9.5 17.8-7.5 27.9l-1.2-2.7c-2.3-5.3-5-10.3-8-15.2 9.1-11.1 8.1-23.4-2.5-33.9-5 9.2-5.3 18.9-1.3 28.1-3.8-5.5-7.9-10.6-12.4-15.5 6.9-12.4 2.5-24-9.5-32-5.4 7.6-.9 19.2 4.7 27-4.8-4.6-9.8-8.8-15.2-12.7 4-13-2.8-23.6-15.8-28.8-1 9.6 2.5 18 9.4 24.5-4.1-2.5-8.3-4.9-12.7-6.9-8.6-10.5-21-15-34.4-11.6 9.5 8.4 21.6 13.1 34.2 12.7 6.2 3 12.2 6.5 17.8 10.5-11-6.6-21.5-6.3-29.3 3.1 12.1 6.7 19.6 3.3 30.1-2.5 6.1 4.4 11.7 9.3 17 14.7-8.8-7.2-18.5-7.4-27.6.1 10.7 8.7 18.7 6.7 30.3 2.8 4.6 5.1 8.9 10.5 12.7 16.3-7-7.4-16.2-8.8-26.3-3.3 8.8 10.2 17.3 9.8 29.3 8.1 2.9 4.9 5.5 9.9 7.8 15.2.5 1 .9 2.1 1.3 3.1-5.6-8.6-14.4-11.5-25.4-8.1 6 10.4 15.7 15.3 27.5 13.7 2.2 6.4 3.9 13 5.1 19.7-3.9-9.7-12.1-14.4-23.8-13 3.9 11.6 12.5 18.2 24.7 18.9.5 3.8.8 7.6.9 11.4.1 2.9.1 5.8 0 8.7-1.9-10.4-9.3-16.5-21.4-17.4 1.5 12.1 9.1 20.6 21 23.5-.6 6.7-1.7 13.3-3.4 19.8.3-10.9-5.6-18.7-17.8-21.4-.8 12.3 5 21.9 16.1 27.3-.6 1.9-1.2 3.7-1.9 5.6-1.7 4.5-3.6 8.9-5.9 13.1 2.4-10.6-2-19.9-13.2-25.2-3.3 12 .4 22.6 10.3 30.4-3.2 5.4-6.8 10.5-10.9 15.2 3.9-9.6 2.1-20.1-8.7-26.4-5.6 11-4.3 22.4 3.7 31.8-.1.1-.2.2-.2.3L248 219c-1.4 1.4-2.9 2.7-4.3 4-1.3 1.1-2.6 2.3-4 3.3 8.1-13.5-5.4-26.9-5.4-26.9s-11.4 13.4-1.6 32.1c-4.9 3.4-10.2 6.4-15.5 9.1 7.2-7.9 9.2-18.4 2.3-28.6-10.2 7.9-13.9 19.8-9.7 32.2-4.9 2.3-9.9 4.3-14.9 6.4 7.3-7 8.7-16.2 4.1-27.7-11.6 6.8-16.7 18.2-13.5 31.4-4.9 1.9-9.9 3.7-14.9 5.7-5.6 2.2-11.1 4.4-16.6 7.1-5.4-2.7-11.1-5-16.6-7.1-5-2-10-3.8-14.9-5.7 3.2-13.2-1.9-24.6-13.5-31.4-4.6 11.5-3.2 20.7 4.1 27.7-5-2-10-4.1-14.9-6.4 4.2-12.4.5-24.3-9.7-32.2-6.8 10.2-4.8 20.7 2.3 28.6-5.4-2.8-10.6-5.7-15.5-9.1 9.8-18.7-1.6-32.1-1.6-32.1s-13.6 13.4-5.4 26.9c-1.4-1.1-2.7-2.2-4-3.3-1.5-1.3-2.9-2.6-4.3-4l-4.2-4.1c-.1-.1-.2-.2-.2-.3 8-9.5 9.3-20.8 3.7-31.8-10.8 6.2-12.6 16.8-8.7 26.4-4.1-4.8-7.7-9.9-10.9-15.2 9.9-7.8 13.6-18.4 10.3-30.4-11.1 5.3-15.5 14.6-13.2 25.2-2.2-4.3-4.2-8.6-5.9-13.1-.7-1.9-1.3-3.7-1.9-5.6 11.1-5.4 16.9-15.1 16.1-27.3-12.2 2.7-18.1 10.5-17.8 21.4-1.7-6.5-2.8-13.1-3.4-19.8 11.9-2.9 19.4-11.4 21-23.5-12.1.8-19.5 6.9-21.4 17.4-.1-2.9-.1-5.8 0-8.7.1-3.8.5-7.6.9-11.4 12.1-.7 20.8-7.3 24.7-18.9-11.7-1.3-19.9 3.3-23.8 13 1.2-6.7 2.9-13.3 5.1-19.7 11.6 1.3 21.3-3.6 27.4-14-11-3.5-19.8-.5-25.4 8.1.4-1.1.9-2.1 1.3-3.1 2.2-5.2 4.8-10.3 7.8-15.2 12 1.6 20.5 2.1 29.3-8.1-10.1-5.4-19.2-4.1-26.3 3.3 3.8-5.7 8-11.2 12.7-16.3 11.6 4 19.5 6 30.3-2.7-9.1-7.6-18.7-7.3-27.6-.1 5.2-5.4 10.9-10.3 17-14.7 10.5 5.8 18 9.2 30.1 2.5-7.8-9.4-18.3-9.7-29.3-3.1 5.6-4 11.6-7.5 17.8-10.5 12.7.4 24.8-4.3 34.2-12.7-13.4-3.4-25.8 1.1-34.4 11.6-4.4 2-8.6 4.4-12.7 6.9C89.5 18 93.1 9.6 92.1 0 78.9 5.2 72.2 15.8 76.2 28.8c-5.4 3.8-10.5 8.1-15.2 12.7 5.6-7.8 10.1-19.4 4.7-27-12 8-16.4 19.6-9.5 32-4.5 4.8-8.7 10-12.4 15.5 4.1-9.2 3.7-18.9-1.3-28.1C31.9 44.4 30.9 56.7 40 67.8c-3 4.9-5.7 10-8 15.2l-1.2 2.7c2-10.1-.5-19.8-7.5-27.9-8.2 12.2-7 25.9 5.1 34.1-2.2 6.1-3.9 12.4-5.1 18.8-.4-10.2-5.1-19-13.9-25.2-5 14-1.4 27 12.7 32.4-.5 3.9-.9 7.8-1.1 11.6-.1 2.4-.2 4.7-.1 7.1-2.7-9.7-9.3-17.1-19.3-21.1-2.3 14.6 5 26.8 19.5 29.1.4 6 1.3 11.9 2.5 17.8-5-8.7-13.1-14.3-23.6-15.8C1.3 161.8 10.3 172 25.8 171c.6 2 1.2 3.9 1.9 5.9 1.3 3.5 2.7 7 4.3 10.4-7-7.3-16.9-12.6-26.6-9.5 4.8 14.8 16 22.4 31 18 2.9 5.1 6.1 9.9 9.8 14.5-8.5-5.5-18.5-6.9-28.7-3.1 7.5 13.6 21.7 18.8 35 10.4.1.1.2.2.3.4l4.2 4.3c1.4 1.4 2.9 2.8 4.4 4.2 1.2 1.1 2.4 2.1 3.7 3.2-9.7-3.3-20-2.1-29.3 3.8 10.6 11.8 26 13.5 36.9 2.1 4.8 3.5 9.9 6.5 15.1 9.4-10.6-1.5-20.1 1.8-27.8 10.2 12.4 7.9 27.2 5.9 36-6.1 5.2 2.5 10.4 4.8 15.6 7-10.5-.3-19.2 4.6-26 14.6 14.1 6.2 27.3 2.7 35-10.9 4.9 2 9.9 3.9 14.8 5.8 4.2 1.7 8.4 3.4 12.4 5.3-3.3 1.9-6.4 4-9.4 6.4-3.2 2.6-6.2 5.4-9.1 8.3-1.1 1.2-1.1 3 0 4.2 1.2 1.1 3 1.1 4.2 0 5.4-5.5 11.4-10.4 18-14.2.8-.5 1.6-1 2.5-1.4.8.5 1.7.9 2.5 1.4 6.6 3.8 12.5 8.7 18 14.2 1.1 1.2 3 1.2 4.2 0 1.2-1.1 1.2-3 0-4.2-2.9-2.9-5.9-5.7-9.1-8.3-2.9-2.4-6.1-4.5-9.4-6.4 4-1.9 8.2-3.6 12.4-5.3 4.9-2 9.9-3.9 14.8-5.8 7.6 13.6 20.9 17.1 35 10.9-6.8-10-15.4-14.9-26-14.6 5.2-2.2 10.5-4.5 15.6-7 8.8 12 23.5 14 35.9 6.1-7.7-8.4-17.3-11.7-27.8-10.2 5.2-2.8 10.3-5.9 15.1-9.4 10.9 11.3 26.3 9.6 36.9-2.1-9.3-5.9-19.6-7-29.3-3.8 1.2-1 2.4-2.1 3.7-3.2 1.5-1.4 3-2.8 4.4-4.2l4.2-4.3c.1-.1.2-.2.3-.4 13.3 8.4 27.5 3.2 35-10.4-10.2-3.7-20.2-2.3-28.7 3.1 3.6-4.6 6.9-9.4 9.8-14.5 15 4.5 26.2-3.2 31-18-9.7-3.3-19.7 1.9-26.6 9.3z" fill="#47c3d1" data-color="1"></path>
    </g>
</svg>