<svg id="Layer_1" data-name="Layer 1" xmlns="http://www.w3.org/2000/svg" viewBox="0 0 400 400"><defs><style>.cls-1{fill:#5e5e5e;}.cls-2{fill:#fff;opacity:0.96;}</style></defs><title>Artboard 1</title><g id="outline"><path class="cls-1" d="M200,19A181,181,0,0,1,328,328,181,181,0,0,1,72,72,179.82,179.82,0,0,1,200,19m0-16C91.2,3,3,91.2,3,200S91.2,397,200,397s197-88.2,197-197S308.8,3,200,3Z"/></g><g id="logo"><path class="cls-2" d="M211.1,88.95v5.39a1.87,1.87,0,0,0,1.6,1.84A112.16,112.16,0,0,1,287,272.46a3.41,3.41,0,0,0-.33,3.44l6.47,13.74a3.39,3.39,0,0,0,5.84.51l19.69-27.86a3.39,3.39,0,0,1,6.11,1.34l7.17,39a.71.71,0,0,1-1.33.44l-11.91-24.36L302.12,319.4a3.39,3.39,0,0,1-5.5,1.16l-26.42-25.51a3.38,3.38,0,0,0-4.44-.23,111.73,111.73,0,0,1-140.66-1.25,2.89,2.89,0,0,0-1.52-.65l-19.13-2.11a2.92,2.92,0,0,0-3,4L116,328.93a2.92,2.92,0,0,1-3.74,3.87L73.74,317.9a.7.7,0,0,1,.3-1.34l28.11,1.85L75.34,283.25a2.92,2.92,0,0,1,1.55-4.59l27.54-7.49a112.16,112.16,0,0,1,75.36-175,1.87,1.87,0,0,0,1.61-1.84V88.95a1.87,1.87,0,0,1,1.87-1.87h26A1.87,1.87,0,0,1,211.1,88.95Zm-104,118.11a89.51,89.51,0,0,0,3,23.11,1.24,1.24,0,0,0,.1.26c7.42,14,16.72,20.28,20.12,22.24a.7.7,0,0,0,1-.73,98.21,98.21,0,0,1-1.47-20.29,1.12,1.12,0,0,1,2-.69,108.15,108.15,0,0,0,20.81,17.92,1.12,1.12,0,0,0,1.74-1.05,89.38,89.38,0,0,1-.52-16.92,1.12,1.12,0,0,1,1.93-.7c3.42,3.65,11.5,11.75,20,16.46a1.11,1.11,0,0,0,1.52-.47c1.29-2.46,4.88-9.29,9.87-18.36a.68.68,0,0,1,.53-.35l40.25-4a.69.69,0,0,1,.21,1.36l-37.06,7.79s-4.49,7.58-10.7,25.36a1.11,1.11,0,0,1-1.52.65,68.78,68.78,0,0,1-15.16-9.52,1.11,1.11,0,0,0-1.84.84,59.83,59.83,0,0,0,1.31,12.27,1.11,1.11,0,0,1-1.41,1.3,52.27,52.27,0,0,1-18.81-10.69,1.12,1.12,0,0,0-1.86,1,35,35,0,0,0,4.91,13.6,1.12,1.12,0,0,1-1.19,1.71,70.61,70.61,0,0,1-15.42-5.65,1,1,0,0,0-1.14,1.46,89.28,89.28,0,1,0-21.26-57.86Zm57.76,7.79a32.92,32.92,0,1,1,32.86-32.92A32.89,32.89,0,0,1,164.86,214.84Zm0-49.17a16.24,16.24,0,1,0,16.22,16.24A16.23,16.23,0,0,0,164.86,165.68Z"/><path class="cls-2" d="M199.23,75.79a.66.66,0,0,1-.87-1c7.41-8.81,27.25-26.43,59.77-13.05,40.45,16.64,50.06,11,54.11,6.06a.93.93,0,0,1,1.55,1c-4.51,8.11-18.69,21.39-61.49,5.46C223.42,63.57,206.47,70.85,199.23,75.79Z"/><path class="cls-1" d="M211.1,88.95v5.39a1.87,1.87,0,0,0,1.6,1.84A112.16,112.16,0,0,1,287,272.46a3.41,3.41,0,0,0-.33,3.44l6.47,13.74a3.39,3.39,0,0,0,5.84.51l19.69-27.86a3.39,3.39,0,0,1,6.11,1.34l7.17,39a.71.71,0,0,1-1.33.44l-11.91-24.36L302.12,319.4a3.39,3.39,0,0,1-5.5,1.16l-26.42-25.51a3.38,3.38,0,0,0-4.44-.23,111.73,111.73,0,0,1-140.66-1.25,2.89,2.89,0,0,0-1.52-.65l-19.13-2.11a2.92,2.92,0,0,0-3,4L116,328.93a2.92,2.92,0,0,1-3.74,3.87L73.74,317.9a.7.7,0,0,1,.3-1.34l28.11,1.85L75.34,283.25a2.92,2.92,0,0,1,1.55-4.59l27.54-7.49a112.16,112.16,0,0,1,75.36-175,1.87,1.87,0,0,0,1.61-1.84V88.95a1.87,1.87,0,0,1,1.87-1.87h26A1.87,1.87,0,0,1,211.1,88.95Zm-104,118.11a89.51,89.51,0,0,0,3,23.11,1.24,1.24,0,0,0,.1.26c7.42,14,16.72,20.28,20.12,22.24a.7.7,0,0,0,1-.73,98.21,98.21,0,0,1-1.47-20.29,1.12,1.12,0,0,1,2-.69,108.15,108.15,0,0,0,20.81,17.92,1.12,1.12,0,0,0,1.74-1.05,89.38,89.38,0,0,1-.52-16.92,1.12,1.12,0,0,1,1.93-.7c3.42,3.65,11.5,11.75,20,16.46a1.11,1.11,0,0,0,1.52-.47c1.29-2.46,4.88-9.29,9.87-18.36a.68.68,0,0,1,.53-.35l40.25-4a.69.69,0,0,1,.21,1.36l-37.06,7.79s-4.49,7.58-10.7,25.36a1.11,1.11,0,0,1-1.52.65,68.78,68.78,0,0,1-15.16-9.52,1.11,1.11,0,0,0-1.84.84,59.83,59.83,0,0,0,1.31,12.27,1.11,1.11,0,0,1-1.41,1.3,52.27,52.27,0,0,1-18.81-10.69,1.12,1.12,0,0,0-1.86,1,35,35,0,0,0,4.91,13.6,1.12,1.12,0,0,1-1.19,1.71,70.61,70.61,0,0,1-15.42-5.65,1,1,0,0,0-1.14,1.46,89.28,89.28,0,1,0-21.26-57.86Zm57.76,7.79a32.92,32.92,0,1,1,32.86-32.92A32.89,32.89,0,0,1,164.86,214.84Zm0-49.17a16.24,16.24,0,1,0,16.22,16.24A16.23,16.23,0,0,0,164.86,165.68Z"/><path class="cls-1" d="M199.23,75.79a.66.66,0,0,1-.87-1c7.41-8.81,27.25-26.43,59.77-13.05,40.45,16.64,50.06,11,54.11,6.06a.93.93,0,0,1,1.55,1c-4.51,8.11-18.69,21.39-61.49,5.46C223.42,63.57,206.47,70.85,199.23,75.79Z"/></g></svg>